<svg xmlns="http://www.w3.org/2000/svg" width="512" height="512" viewBox="0 0 100 100" fill="none">
    <defs>
        <filter id="glow" x="-300%" y="-300%" width="600%" height="600%">
            <feDropShadow dx="0" dy="0" stdDeviation="1" flood-color="#00ffaa" flood-opacity="0.8" />
            <feDropShadow dx="0" dy="0" stdDeviation="2" flood-color="#00ffaa" flood-opacity="0.5" />
            <feDropShadow dx="0" dy="0" stdDeviation="6" flood-color="#00ffaa" flood-opacity="0.2" />
        </filter>
        <filter id="glow-gray" x="-300%" y="-300%" width="600%" height="600%">
            <feDropShadow dx="0" dy="0" stdDeviation="1" flood-color="#dddddd" flood-opacity="0.8" />
            <feDropShadow dx="0" dy="0" stdDeviation="2" flood-color="#dddddd" flood-opacity="0.5" />
            <feDropShadow dx="0" dy="0" stdDeviation="6" flood-color="#dddddd" flood-opacity="0.1" />
        </filter>
    </defs>
    <rect width="100" height="100" fill="#ffffff" x="0" y="0" />
    <path d="M50,80 C55,85,60,90,65,80 M50 80 C45,85,40,90,35,80" stroke="black" stroke-linecap="round" stroke-width="4"
        fill="none" />
    <circle cx="30" cy="60" r="10" stroke="black" stroke-width="4" fill="none" />
    <circle cx="70" cy="60" r="10" stroke="black" stroke-width="4" fill="none" />
    <line x1="40" x2="60" y1="60" y2="60" stroke="black" stroke-width="4" />
    <line x1="20" x2="10" y1="60" y2="60" stroke="black" stroke-width="4" stroke-linecap="round" />
    <line x1="80" x2="90" y1="60" y2="60" stroke="black" stroke-width="4" stroke-linecap="round" />
    <line x1="40" x2="25" y1="45" y2="40" stroke="black" stroke-width="4" stroke-linecap="round" />
    <line x1="60" x2="75" y1="45" y2="40" stroke="black" stroke-width="4" stroke-linecap="round" />
    <polyline points="50.0,30.0 50.15,30.03 50.28,30.1 50.39,30.23 50.46,30.39 50.48,30.57 50.45,30.78 50.36,30.99 50.21,31.18 50.0,31.35 
49.74,31.48 49.44,31.55 49.1,31.56 48.75,31.49 48.39,31.35 48.05,31.12 47.74,30.82 47.49,30.44 47.3,30.0 47.19,29.51 
47.18,28.97 47.27,28.43 47.47,27.88 47.78,27.36 48.2,26.88 48.72,26.48 49.32,26.16 50.0,25.95 50.73,25.86 51.49,25.91 
52.25,26.1 52.99,26.44 53.68,26.91 54.29,27.52 54.79,28.26 55.17,29.09 55.4,30.0 55.47,30.96 55.36,31.95 55.07,32.92 
54.6,33.86 53.95,34.71 53.15,35.46 52.21,36.06 51.15,36.5 50.0,36.75 48.8,36.8 47.59,36.62 46.4,36.24 45.28,35.63 
44.25,34.82 43.37,33.82 42.67,32.67 42.17,31.38 41.9,30.0 41.88,28.57 42.11,27.13 42.6,25.72 43.34,24.41 44.31,23.22 
45.5,22.21 46.87,21.4 48.39,20.84 50.0,20.55
    " fill="none" stroke="green" stroke-width="2" stroke-linecap="round" />
    <polyline points="35.0,20.0 35.15,20.03 35.28,20.1 35.39,20.23 35.46,20.39 35.48,20.57 35.45,20.78 35.36,20.99 35.21,21.18 35.0,21.35 
34.74,21.48 34.44,21.55 34.1,21.56 33.75,21.49 33.39,21.35 33.05,21.12 32.74,20.82 32.49,20.44 32.3,20.0 32.19,19.51 
32.18,18.97 32.27,18.43 32.47,17.88 32.78,17.36 33.2,16.88 33.72,16.48 34.32,16.16 35.0,15.95 35.73,15.86 36.49,15.91 
37.25,16.1 37.99,16.44 38.68,16.91 39.29,17.52 39.79,18.26 40.17,19.09 40.4,20.0 40.47,20.96 40.36,21.95 40.07,22.92 
39.6,23.86 38.95,24.71 38.15,25.46 37.21,26.06 36.15,26.5 35.0,26.75 33.8,26.8 32.59,26.62 31.4,26.24 30.28,25.63 
29.25,24.82 28.37,23.82 27.67,22.67 27.17,21.38 26.9,20.0 26.88,18.57 27.11,17.13 27.6,15.72 28.34,14.41 29.31,13.22 
30.5,12.21 31.87,11.4 33.39,10.84 35.0,10.55
    " fill="none" stroke="green" stroke-width="2" stroke-linecap="round" />
    <polyline points="65.0,20.0 65.15,20.03 65.28,20.1 65.39,20.23 65.46,20.39 65.48,20.57 65.45,20.78 65.36,20.99 65.21,21.18 65.0,21.35 
64.74,21.48 64.44,21.55 64.1,21.56 63.75,21.49 63.39,21.35 63.05,21.12 62.74,20.82 62.49,20.44 62.3,20.0 62.19,19.51 
62.18,18.97 62.27,18.43 62.47,17.88 62.78,17.36 63.2,16.88 63.72,16.48 64.32,16.16 65.0,15.95 65.73,15.86 66.49,15.91 
67.25,16.1 67.99,16.44 68.68,16.91 69.29,17.52 69.79,18.26 70.17,19.09 70.4,20.0 70.47,20.96 70.36,21.95 70.07,22.92 
69.6,23.86 68.95,24.71 68.15,25.46 67.21,26.06 66.15,26.5 65.0,26.75 63.8,26.8 62.59,26.62 61.4,26.24 60.28,25.63 
59.25,24.82 58.37,23.82 57.67,22.67 57.17,21.38 56.9,20.0 56.88,18.57 57.11,17.13 57.6,15.72 58.34,14.41 59.31,13.22 
60.5,12.21 61.87,11.4 63.39,10.84 65.0,10.55
    " fill="none" stroke="green" stroke-width="2" stroke-linecap="round" />
    <polyline points="50.0,15.0 50.15,15.03 50.28,15.1 50.39,15.22 50.46,15.39 50.48,15.57 50.45,15.78 50.36,15.99 50.21,16.18 50.0,16.35 
49.74,16.48 49.44,16.55 49.1,16.56 48.75,16.49 48.39,16.35 48.05,16.12 47.74,15.82 47.49,15.44 47.3,15.0 47.19,14.51 
47.18,13.97 47.27,13.42 47.47,12.88 47.78,12.36 48.2,11.88 48.72,11.48 49.32,11.16 50.0,10.95 50.73,10.86 51.49,10.91 
52.25,11.1 52.99,11.44 53.68,11.91 54.29,12.52 54.79,13.26 55.17,14.09 55.4,15.0 55.47,15.96 55.36,16.95 55.07,17.92 
54.6,18.86 53.95,19.71 53.15,20.46 52.21,21.06 51.15,21.5 50.0,21.75 48.8,21.8 47.59,21.62 46.4,21.24 45.28,20.63 
44.25,19.82 43.37,18.82 42.67,17.67 42.17,16.38 41.9,15.0 41.88,13.57 42.11,12.13 42.6,10.72 43.34,9.408 44.31,8.221 
45.5,7.206 46.87,6.402 48.39,5.841 50.0,5.55
    " fill="none" stroke="green" stroke-width="2" stroke-linecap="round" />
    <polyline points="20.0,25.0 20.15,25.03 20.28,25.1 20.39,25.23 20.46,25.39 20.48,25.57 20.45,25.78 20.36,25.99 20.21,26.18 20.0,26.35 
19.74,26.48 19.44,26.55 19.1,26.56 18.75,26.49 18.39,26.35 18.05,26.12 17.74,25.82 17.49,25.44 17.3,25.0 17.19,24.51 
17.18,23.97 17.27,23.43 17.47,22.88 17.78,22.36 18.2,21.88 18.72,21.48 19.32,21.16 20.0,20.95 20.73,20.86 21.49,20.91 
22.25,21.1 22.99,21.44 23.68,21.91 24.29,22.52 24.79,23.26 25.17,24.09 25.4,25.0 25.47,25.96 25.36,26.95 25.07,27.92 
24.6,28.86 23.95,29.71 23.15,30.46 22.21,31.06 21.15,31.5 20.0,31.75 18.8,31.8 17.59,31.62 16.4,31.24 15.28,30.63 
14.25,29.82 13.37,28.82 12.67,27.67 12.17,26.38 11.9,25.0 11.88,23.57 12.11,22.13 12.6,20.72 13.34,19.41 14.31,18.22 
15.5,17.21 16.87,16.4 18.39,15.84 20.0,15.55
    " fill="none" stroke="green" stroke-width="2" stroke-linecap="round" />
    <polyline points="80.0,25.0 80.15,25.03 80.28,25.1 80.39,25.23 80.46,25.39 80.48,25.57 80.45,25.78 80.36,25.99 80.21,26.18 80.0,26.35 
79.74,26.48 79.44,26.55 79.1,26.56 78.75,26.49 78.39,26.35 78.05,26.12 77.74,25.82 77.49,25.44 77.3,25.0 77.19,24.51 
77.18,23.97 77.27,23.43 77.47,22.88 77.78,22.36 78.2,21.88 78.72,21.48 79.32,21.16 80.0,20.95 80.73,20.86 81.49,20.91 
82.25,21.1 82.99,21.44 83.68,21.91 84.29,22.52 84.79,23.26 85.17,24.09 85.4,25.0 85.47,25.96 85.36,26.95 85.07,27.92 
84.6,28.86 83.95,29.71 83.15,30.46 82.21,31.06 81.15,31.5 80.0,31.75 78.8,31.8 77.59,31.62 76.4,31.24 75.28,30.63 
74.25,29.82 73.37,28.82 72.67,27.67 72.17,26.38 71.9,25.0 71.88,23.57 72.11,22.13 72.6,20.72 73.34,19.41 74.31,18.22 
75.5,17.21 76.87,16.4 78.39,15.84 80.0,15.55
    " fill="none" stroke="green" stroke-width="2" stroke-linecap="round" />
</svg>